<svg xmlns="http://www.w3.org/2000/svg" width="277.251" height="154.132" viewBox="0 0 277.251 154.132">
  <defs>
    <style>
      .cls-1 {
        fill: #8bc9d7;
      }

      .cls-2 {
        fill: #eeb256;
      }
    </style>
  </defs>
  <g id="Group_2124" data-name="Group 2124" transform="translate(-445.304 -1390.873)">
    <g id="Group_114" data-name="Group 114" transform="translate(-1472)">
      <g id="Group_113" data-name="Group 113">
        <path id="Path_118" data-name="Path 118" class="cls-1" d="M2119.009,1507.2c19.656-1.1,29.06-11.626,27.957-31.282-.762-13.579-17.66-33.828-20.525-38.248-1.062-1.637-9.39-12.118-9.851-12.568a3.064,3.064,0,0,0-4.329.2l-.037.041c-.576.706-13.714,23.058-14.456,24.115-.844,1.2-10.6,19.771-10.041,29.781.48,8.552.436,16.519,4.418,21.2C2098.634,1508.084,2107.905,1507.825,2119.009,1507.2Zm-3.514-74.491c1.38-.276,9.539,13.173,12.04,15.809s13.007,18.816,13.507,27.733c.556,9.908-4.364,18.544-11.639,22.832-2.342,1.38-9.37,2.708-16.07,3.084-16.608.932-20.707-6.111-19.682-23.256C2094.63,1462.524,2114.116,1432.985,2115.5,1432.71Z"/>
        <g id="Group_109" data-name="Group 109">
          <g id="Group_108" data-name="Group 108">
            <path id="Path_119" data-name="Path 119" class="cls-1" d="M2114.093,1390.905c-31.952.3-58.267,17.324-68.317,49.516-10.674,34.192-2.1,68.557,23.548,89.25,26.5,21.378,64.712,19.809,90.354-1,12.848-10.427,22.863-24.806,29.171-40.081,5.85-14.167,7.645-32.558,3.291-47.592-9.186-31.715-46.492-47.921-76.831-50.095-2.432-.175-6.04.478-7.935,2.126-1.5,1.306-1.717,2.534.726,2.709,24.862,1.782,45.4,1.49,65.368,23.343,26.469,28.972,22.669,57.708-4.057,91.638-8.91,11.311-23.053,23.684-39.643,26.787-13.98,2.614-29.619,2.874-42.213-3.1-35.1-16.658-48.671-47.576-40.237-82.139,7.641-31.313,28.4-56.216,62-56.531,1.965-.018,6.412-.848,7.493-2.744C2117.969,1390.95,2115.807,1390.889,2114.093,1390.905Z"/>
          </g>
        </g>
        <g id="Group_110" data-name="Group 110">
          <path id="Path_120" data-name="Path 120" class="cls-1" d="M2055.826,1501.777a14.671,14.671,0,0,1,2.779-2.816l.541.818a17.222,17.222,0,0,0-3.106,2.194Z"/>
          <path id="Path_121" data-name="Path 121" class="cls-1" d="M2065.445,1495.723a26.443,26.443,0,0,1,7.569-.764l-.142,2.355a29.088,29.088,0,0,0-7.045.22Z"/>
          <path id="Path_122" data-name="Path 122" class="cls-1" d="M2080.5,1496.12c1.216.309,2.4.7,3.583,1.091s2.327.864,3.473,1.318l-.841,2.261c-1.147-.4-2.3-.755-3.445-1.13s-2.294-.706-3.441-1.029Z"/>
          <path id="Path_123" data-name="Path 123" class="cls-1" d="M2094.291,1501.476l3.378,1.363c.567.217,1.127.467,1.7.657l1.73.552-.263,1c-1.2-.3-2.4-.6-3.576-.961l-3.561-1.022Z"/>
          <path id="Path_124" data-name="Path 124" class="cls-1" d="M2108.226,1505.335a23.2,23.2,0,0,0,7.144-.59l.259,1.24a30.573,30.573,0,0,1-7.468.254Z"/>
          <path id="Path_125" data-name="Path 125" class="cls-1" d="M2121.723,1501.778a48.894,48.894,0,0,1,6.116-4.331l1.09,2.249c-2.034.918-3.967,2.425-6.15,3.707Z"/>
          <path id="Path_126" data-name="Path 126" class="cls-1" d="M2135.868,1496.475a26.478,26.478,0,0,1,7.088,3.117l-1.57,2.627a24.811,24.811,0,0,0-6.2-3.011Z"/>
          <path id="Path_127" data-name="Path 127" class="cls-1" d="M2149.2,1503.146a16.868,16.868,0,0,0,3.133,1.2,10.682,10.682,0,0,0,3.182.35l.207,2.864a12.89,12.89,0,0,1-4.1-.3,19.877,19.877,0,0,1-3.749-1.307Z"/>
          <path id="Path_128" data-name="Path 128" class="cls-1" d="M2161.986,1502.767l3.309-1.607c.561-.259,1.092-.535,1.677-.778l1.784-.7.655,1.686-1.568.793c-.523.277-1.05.616-1.574.921l-3.165,1.847Z"/>
          <path id="Path_129" data-name="Path 129" class="cls-1" d="M2176.338,1499.075a7.238,7.238,0,0,1,3.5,1.915l-.187.223a7.317,7.317,0,0,0-3.47-1.252Z"/>
        </g>
        <g id="Group_111" data-name="Group 111">
          <path id="Path_130" data-name="Path 130" class="cls-1" d="M2065.445,1510.32a26.447,26.447,0,0,1,7.569-.764l-.142,2.355a29.088,29.088,0,0,0-7.045.22Z"/>
          <path id="Path_131" data-name="Path 131" class="cls-1" d="M2080.5,1510.717c1.216.309,2.4.7,3.583,1.091s2.327.864,3.473,1.318l-.841,2.261c-1.147-.4-2.3-.755-3.445-1.13s-2.294-.706-3.441-1.029Z"/>
          <path id="Path_132" data-name="Path 132" class="cls-1" d="M2094.291,1516.073l3.378,1.363c.567.217,1.127.467,1.7.657l1.73.552-.263,1c-1.2-.3-2.4-.6-3.576-.961l-3.561-1.022Z"/>
          <path id="Path_133" data-name="Path 133" class="cls-1" d="M2108.226,1519.932a23.208,23.208,0,0,0,7.144-.59l.259,1.24a30.573,30.573,0,0,1-7.468.254Z"/>
          <path id="Path_134" data-name="Path 134" class="cls-1" d="M2121.723,1516.375a48.907,48.907,0,0,1,6.116-4.331l1.09,2.249c-2.034.918-3.967,2.425-6.15,3.707Z"/>
          <path id="Path_135" data-name="Path 135" class="cls-1" d="M2135.868,1511.072a26.482,26.482,0,0,1,7.088,3.117l-1.57,2.627a24.811,24.811,0,0,0-6.2-3.011Z"/>
          <path id="Path_136" data-name="Path 136" class="cls-1" d="M2149.2,1517.743a16.877,16.877,0,0,0,3.133,1.2,10.682,10.682,0,0,0,3.182.35l.207,2.864a12.886,12.886,0,0,1-4.1-.305,19.869,19.869,0,0,1-3.749-1.307Z"/>
          <path id="Path_137" data-name="Path 137" class="cls-1" d="M2161.986,1517.364l3.309-1.607c.561-.259,1.092-.535,1.677-.778l1.784-.7.655,1.686-1.568.793c-.523.277-1.05.616-1.574.921l-3.165,1.847Z"/>
        </g>
        <g id="Group_112" data-name="Group 112">
          <path id="Path_138" data-name="Path 138" class="cls-1" d="M2075.73,1522.57c1.216.309,2.4.7,3.583,1.09s2.327.865,3.472,1.319l-.84,2.261c-1.147-.4-2.3-.755-3.445-1.131s-2.294-.706-3.442-1.029Z"/>
          <path id="Path_139" data-name="Path 139" class="cls-1" d="M2089.522,1527.926l3.378,1.362c.567.217,1.127.467,1.7.658l1.73.552-.263,1c-1.2-.3-2.4-.6-3.576-.961l-3.561-1.022Z"/>
          <path id="Path_140" data-name="Path 140" class="cls-1" d="M2103.457,1531.785a23.24,23.24,0,0,0,7.144-.59l.258,1.24a30.6,30.6,0,0,1-7.467.254Z"/>
          <path id="Path_141" data-name="Path 141" class="cls-1" d="M2116.954,1528.228a49.037,49.037,0,0,1,6.115-4.332l1.091,2.249c-2.034.919-3.967,2.425-6.151,3.708Z"/>
          <path id="Path_142" data-name="Path 142" class="cls-1" d="M2131.1,1522.925a26.536,26.536,0,0,1,7.088,3.116l-1.57,2.628a24.814,24.814,0,0,0-6.2-3.012Z"/>
          <path id="Path_143" data-name="Path 143" class="cls-1" d="M2146.288,1532.8a19.833,19.833,0,0,1-3.749-1.307l1.323-2.8a16.885,16.885,0,0,0,3.133,1.2,10.683,10.683,0,0,0,3.183.35"/>
        </g>
        <path id="Path_144" data-name="Path 144" class="cls-1" d="M2103.535,1484.48c.322.646.558,2.926.968,3.873a8.59,8.59,0,0,0,5.446,4.841c.158.034,4.837-.775,6.011-1.613.282-.2,2.113,1.411,1.856,1.855-.613,1.059-3.416,1.982-6.294,2.179-1.21.083-5.083-.121-7.14-1.453a40.618,40.618,0,0,1-3.147-5.567,31.757,31.757,0,0,1-.442-4.594S2103.212,1483.835,2103.535,1484.48Z"/>
      </g>
    </g>
    <g id="Group_119" data-name="Group 119" transform="translate(-1472)">
      <g id="Group_118" data-name="Group 118">
        <g id="Group_116" data-name="Group 116">
          <g id="Group_115" data-name="Group 115">
            <path id="Path_145" data-name="Path 145" class="cls-2" d="M1991.62,1391.829c-31.935,0-60.865,19.44-70.6,50.347-9.822,31.184.179,67.726,25.83,88.419,26.5,21.378,63.1,17.8,88.742-3.013,12.848-10.427,21.794-21.122,28.058-36.414,6.728-16.424,7.693-36.329,3.339-51.363-9.186-31.715-43.16-47.98-74.153-47.98-2.439,0-6.04.478-7.936,2.126-1.5,1.306-1.723,2.709.726,2.709,25.55,0,57.426,10.24,71.27,31.942,15.871,24.88,4.7,61.745-11.726,83.637-8.642,11.517-23.976,21.571-37.876,26.189-13.5,4.483-30.139,5.778-42.254-1.118-25.848-14.713-45.572-46.991-43.508-76.129,2.252-31.787,31.712-64.211,65.31-64.526,1.966-.018,6.413-.848,7.494-2.744C1995.5,1391.874,1993.334,1391.829,1991.62,1391.829Z"/>
          </g>
        </g>
        <path id="Path_146" data-name="Path 146" class="cls-2" d="M2021.385,1482.047c6.617-3.577,6.647-13.4,6.08-20.925-1.961.654-2.933.189-4.894.843,8.64,1.31,15.581,24.487,15.679,37.558.131,17.314-10.321,31.932-26.774,37.821-23.534,8.423-60.631-4.567-66.406-30.425-3.394-15.2,2.844-19.83,1.917-32.741-.145-2.023-3.117-2.081-3.577-.179-4.473,18.495-5.608,35.412,5.966,51.684,13.207,18.566,40.408,21.263,60.752,15.054,18.849-5.751,28.086-18.38,30.713-38.589,1.918-14.759-2.343-31.339-12.59-42.473-1.174-1.275-6.031.023-5.885,1.961.1,1.27-.274,23.729-5.5,17.05-1.218-1.556-.266-7.059-.786-9.41a33.67,33.67,0,0,0-4.708-10.911c-5.434-8.423-15.4-13.055-20.61-17.63-2.275-2-3.2-9.154-2.284-13.235.539-2.406-3.634-.8-4.391.538-5.8,10.282-7.051,20.21-2.143,30.136,1.8,3.645,8.211,10.535,6.236,15.467-2.348,5.862-9.792-6.18-13.631-8.884-1.127-.794-3.7.355-3.508,2.535.3,3.445.745,4.352,2.593,10.641,2.655,9.036-5.364,22.751-17.124,11.847-5.518-5.115-6.827-12.255-7.2-17.473-2.161-3.095-5.186-2.02-5.915,2.079-.375,2.111,1.841,1.76,2.249,3.816,1.967,9.925,10.751,18.307,18.589,17.819,14.869-.926,13.132-21.816,10.519-30.935-1.962.653-1.547,1.882-3.508,2.535,5.072,3.573,6.539,10.305,13.069,9.955,3.844-.207,5.713-1,7.2-4.292,3.458-7.631-1.673-8.123-3.577-12.162-9.3-19.733-7.085-22.679.537-33.622-2.021.286-2.37.253-4.391.538-.969,8.8,2.973,15.4,9.531,20.8,7.411,6.1,21.435,11.117,17.558,23.594-1.573,5.059-.088,8.653,2.518,11.3C2013.694,1483.731,2018.806,1483.44,2021.385,1482.047Z"/>
        <g id="Group_117" data-name="Group 117">
          <path id="Path_147" data-name="Path 147" class="cls-2" d="M1993.759,1485.093c-1.584,2.337-3.216,4.594-4.849,6.835l-1.137-.847c1.911-2.1,3.822-4.178,5.781-6.179Z"/>
          <path id="Path_148" data-name="Path 148" class="cls-2" d="M1984.527,1499.012c-1.247,2.468-2.476,4.933-3.766,7.364l-2.218-1.017c1.36-2.506,2.781-4.979,4.182-7.448Z"/>
          <path id="Path_149" data-name="Path 149" class="cls-2" d="M1977.97,1514.071a32.544,32.544,0,0,0-1.32,7.988l-1.835.046a28.672,28.672,0,0,1,.783-8.651Z"/>
          <path id="Path_150" data-name="Path 150" class="cls-2" d="M1978.06,1530a16.6,16.6,0,0,0,2.039,3.544c.9,1.041,1.775,2.115,2.7,3.133l-.608.622c-.91-1.1-1.877-2.137-2.814-3.212a20.6,20.6,0,0,1-2.316-3.627Z"/>
          <path id="Path_151" data-name="Path 151" class="cls-2" d="M1989.753,1540.831a13.964,13.964,0,0,0,7.9-.264l.472,1.76a15.876,15.876,0,0,1-8.715-.375Z"/>
          <path id="Path_152" data-name="Path 152" class="cls-2" d="M2004.709,1536.783c.782-.594,1.531-1.233,2.259-1.891a25.746,25.746,0,0,0,2.042-2.048l-.149.207a7.511,7.511,0,0,0,.352-.841c.108-.311.2-.631.282-.954l2.617.681q-.168.61-.4,1.206a9.316,9.316,0,0,1-.574,1.227l-.068.121-.081.087a27.654,27.654,0,0,1-2.354,2.223,30.977,30.977,0,0,1-2.544,1.917Z"/>
          <path id="Path_153" data-name="Path 153" class="cls-2" d="M2008.568,1524.084a17.158,17.158,0,0,0-5.1-5.69l1.759-2.386a19.021,19.021,0,0,1,6,6.743Z"/>
          <path id="Path_154" data-name="Path 154" class="cls-2" d="M1997.635,1511.635a35.217,35.217,0,0,1-2.985-8.171l2.13-.578a32.794,32.794,0,0,0,3.189,7.43Z"/>
          <path id="Path_155" data-name="Path 155" class="cls-2" d="M1993.41,1495.008c-.068-2.841-.036-5.676-.031-8.483l.518,0c.349,2.789.726,5.551,1,8.307Z"/>
        </g>
      </g>
    </g>
  </g>
</svg>
