<svg xmlns="http://www.w3.org/2000/svg" width="282.371" height="154.004" viewBox="0 0 282.371 154.004">
  <defs>
    <style>
      .cls-1 {
        fill: #837c72;
      }

      .cls-2 {
        fill: #976aad;
      }
    </style>
  </defs>
  <g id="Group_2125" data-name="Group 2125" transform="translate(-69.747 -1390.937)">
    <g id="Group_127" data-name="Group 127" transform="translate(-1472)">
      <g id="Group_126" data-name="Group 126">
        <g id="Group_122" data-name="Group 122">
          <g id="Group_121" data-name="Group 121">
            <path id="Path_156" data-name="Path 156" class="cls-1" d="M1617.786,1391.23c-31.953.3-62.926,20.148-72.661,51.055-9.823,31.184,2.6,68.5,26.576,87.27,23.845,18.672,73.326,22.665,96.286-1.073,12.546-12.971,17.237-20.778,21.819-31.715,7.153-17.076,10.077-41.7,5.722-56.738-9.185-31.715-38.085-51.758-76.526-48.8-2.432.187-6.04.478-7.936,2.126-1.5,1.306-1.723,2.709.726,2.709,37.827,0,61.466,6.5,74.794,33.593,13.026,26.481,5.967,60.963-14.307,85.52-9.167,11.1-16.118,16.918-30.018,21.536-13.5,4.484-39.7,4.067-52.248-2-35.411-17.132-44.986-48.65-42.922-77.788,2.252-31.787,32.319-60.547,65.917-60.862,1.965-.018,6.413-.848,7.493-2.744C1621.662,1391.275,1619.5,1391.214,1617.786,1391.23Z"/>
          </g>
        </g>
        <g id="Group_123" data-name="Group 123">
          <path id="Path_157" data-name="Path 157" class="cls-1" d="M1576,1467.023c-1.4-2.28-.364-7.809,1.55-9.509,2.334-2.071,12.692.939,13.682,2.955,2.682,5.466.44,16.672-5.008,18.506-4.482,1.509-12.133,1.751-15.976-1.073-6.439-4.732-8.257-21.372-2.534-28.346,8.813-10.741,29.222-8,35.679,2.682,6.385,10.562,2.631,31.026-6.707,39.166-5.592,4.875-13.477,7.9-20.745,8.764-3.764.449-9.8-.388-13.592-.358-1.171.009-2.765.062-3.935,0-.545-.029-6.02-.954-6.825-.159a2.481,2.481,0,0,0,1.127,4.2,36.252,36.252,0,0,0,8.925.659,100.019,100.019,0,0,0,13.2-.849c9.487-1.275,18.7-4.566,25.889-11.094a31.866,31.866,0,0,0,10.685-23.661c.014-8.035-2.39-16.305-8.25-22.038-6.687-6.541-17.327-9.133-26.386-7-9.488,2.235-14.27,10.072-16.192,19.608-1.763,8.746,1.194,18.2,9.659,22.036,7.753,3.517,16.088,3.142,22.266-3.179,6.885-7.043,6.025-20.383-3.871-24.58-9.667-4.1-22.687,6.1-16.568,16.065,2.041,3.324,7.966,2.745,5.6-1.108Z"/>
        </g>
        <g id="Group_124" data-name="Group 124">
          <path id="Path_158" data-name="Path 158" class="cls-1" d="M1626.732,1439.268c-2.88-1.625-3.995-3.143-1.331-6.177.614-.7,3.509-1.449,3.314-1.345a12.836,12.836,0,0,1,2.551-.262c8.225.917,9.3,7.8,2.806,14.474-2.595,2.667-9.789,4.616-13.218,3.832-4.759-1.088-11.345-5.4-12.268-9.858-1.165-5.628,2.409-15.666,6.358-19.848,3.2-3.385,11.669-4.5,16.272-4.494,10.434.023,20.353,7.628,21.554,17.614.622,5.177-.368,14.213-6.723,20.1-4.944,4.582-8.531,5.73-14.412,8.518-1.217.577-4.658,2.932-4.578,4.061.121,1.733,9.734-2.861,11.011-3.466,7.316-3.468,9.839-4.937,14.432-11.868a20.914,20.914,0,0,0,3.478-16.906c-1.286-7-3.949-12.933-9.583-17.172-5.552-4.176-13.27-4.986-19.95-3.938-7.544,1.184-14.53,4.857-18.752,11.375a20.885,20.885,0,0,0-1.461,20.411c3.248,6.618,9.351,9.335,16.558,8.969,6.638-.337,14.9-3.3,17.475-9.989,2.767-7.171-1.236-16.371-9.651-16.089-7.56.253-14.6,7.633-8.546,14.425,2.018,2.265,6.908.152,4.664-2.368Z"/>
        </g>
        <g id="Group_125" data-name="Group 125">
          <path id="Path_159" data-name="Path 159" class="cls-1" d="M1634.037,1484.662a12.473,12.473,0,0,1,3.045-7.248l.881.454a10.891,10.891,0,0,0-2.618,6.794Z"/>
          <path id="Path_160" data-name="Path 160" class="cls-1" d="M1640.137,1474.717a6.462,6.462,0,0,1,4.09-.436A7.688,7.688,0,0,1,1648,1476l-.6.681a6.854,6.854,0,0,0-3.315-1.665,5.786,5.786,0,0,0-3.7.234Z"/>
          <path id="Path_161" data-name="Path 161" class="cls-1" d="M1650.443,1479.378a18.753,18.753,0,0,1,1.349,8.047l-1.38-.074a17.587,17.587,0,0,0-.951-7.558Z"/>
          <path id="Path_162" data-name="Path 162" class="cls-1" d="M1651.129,1491.548a14.016,14.016,0,0,1-5.177,6.508l-.966-1.412a12.427,12.427,0,0,0,4.72-5.623Z"/>
          <path id="Path_163" data-name="Path 163" class="cls-1" d="M1642.183,1499.96a11.478,11.478,0,0,1-4.239.557,18.056,18.056,0,0,1-4.143-.638l.556-1.921a16.176,16.176,0,0,0,3.68.658,9.567,9.567,0,0,0,3.606-.381Z"/>
          <path id="Path_164" data-name="Path 164" class="cls-1" d="M1629.91,1498.276a17.685,17.685,0,0,1-6.107-5.745l1.888-.711a14.179,14.179,0,0,0,5.268,4.64Z"/>
          <path id="Path_165" data-name="Path 165" class="cls-1" d="M1621.893,1488.773a23.163,23.163,0,0,1-1.463-8.221h2.132a29.458,29.458,0,0,0,.178,4.11c.191,1.24.978,2.11,1.392,3.286Z"/>
          <path id="Path_166" data-name="Path 166" class="cls-1" d="M1620.839,1476.329a21.37,21.37,0,0,1,1.782-4.15,18.4,18.4,0,0,1,1.611-3.585l2.123,1.539a17.469,17.469,0,0,0-3.01,6.713Z"/>
          <path id="Path_167" data-name="Path 167" class="cls-1" d="M1627.021,1465.423a24.279,24.279,0,0,1,7.027-4.574l1.062,2.5a21.62,21.62,0,0,0-6.279,4.014Z"/>
          <path id="Path_168" data-name="Path 168" class="cls-1" d="M1638.049,1459.528a21.406,21.406,0,0,1,4.2-.564,20.593,20.593,0,0,1,2.115.1l2.107.16-.444,2.779-1.854-.147a18.353,18.353,0,0,0-1.848-.115,18.616,18.616,0,0,0-3.662.464Z"/>
          <path id="Path_169" data-name="Path 169" class="cls-1" d="M1651.129,1460.849a29.428,29.428,0,0,1,3.147,1.82c2.16,1.438,3.19,1.35,3.494,2.133l-2.015,2.1a18.084,18.084,0,0,0-6.161-3.942Z"/>
          <path id="Path_170" data-name="Path 170" class="cls-1" d="M1660.178,1468.594a23.257,23.257,0,0,1,3.729,6.75l-2.32.791a22.468,22.468,0,0,0-.992-3.653c-.95-1.911-1.635-1.906-2.42-3.007Z"/>
          <path id="Path_171" data-name="Path 171" class="cls-1" d="M1664.947,1479.9a28.664,28.664,0,0,1,.655,7.846l-2.451-.2a29.074,29.074,0,0,0-.563-7.51Z"/>
          <path id="Path_172" data-name="Path 172" class="cls-1" d="M1665.322,1491.884a28.557,28.557,0,0,1-3.114,7.715l-2.365-1.365c.626-1.095,1.9-2.018,2.362-3.186a19.437,19.437,0,0,0,.715-3.228Z"/>
          <path id="Path_173" data-name="Path 173" class="cls-1" d="M1659.89,1503.026c-1.7,2.184-4.587,3.748-6.626,5.187l-.841-1.418a31.119,31.119,0,0,0,5.331-5.415Z"/>
          <path id="Path_174" data-name="Path 174" class="cls-1" d="M1650.682,1511.211a39.879,39.879,0,0,1-7.385,3.545l-.871-2.383c2.405-.891,4.2-1.252,6.366-2.609Z"/>
          <path id="Path_175" data-name="Path 175" class="cls-1" d="M1639.39,1515.961c-2.641.666-4.888.524-7.588.729l-.651-1.754a46.427,46.427,0,0,0,7.6-1.4Z"/>
          <path id="Path_176" data-name="Path 176" class="cls-1" d="M1626.794,1517.116l-7.436.189v-2.026l3.976.2,3.951-.305Z"/>
          <path id="Path_177" data-name="Path 177" class="cls-1" d="M1615.385,1517.258l-3.971.314-3.519-.4-.452-1.74,7.941-.1Z"/>
          <path id="Path_178" data-name="Path 178" class="cls-1" d="M1603.486,1517.116l-7.944-.108v-1.419l3.972.319,3.972-.429Z"/>
          <path id="Path_179" data-name="Path 179" class="cls-1" d="M1591.571,1516.928l-7.948-.159v-.942l7.948-.159Z"/>
          <path id="Path_180" data-name="Path 180" class="cls-1" d="M1579.65,1516.69l-7.949-.159v-.465l7.949-.159Z"/>
          <path id="Path_181" data-name="Path 181" class="cls-1" d="M1567.726,1516.424l-4.7-.126,4.7-.126Z"/>
        </g>
      </g>
    </g>
    <g id="Group_132" data-name="Group 132" transform="translate(-1472)">
      <g id="Group_131" data-name="Group 131">
        <g id="Group_129" data-name="Group 129">
          <g id="Group_128" data-name="Group 128">
            <path id="Path_182" data-name="Path 182" class="cls-2" d="M1745.857,1391.765c-31.953.3-60.865,19.44-70.6,50.347-9.822,31.184.179,67.725,25.831,88.418,26.5,21.378,63.1,17.8,88.741-3.012a100.985,100.985,0,0,0,29.258-39.659,69.744,69.744,0,0,0,2.246-45.579c-9.186-31.715-43.921-48.345-74.259-50.52-2.433-.174-6.04.478-7.936,2.127-1.5,1.306-1.717,2.534.726,2.709,24.862,1.782,54.212,9.5,68.056,31.2,15.87,24.879,13.7,57.646-7.869,82.457-9.446,10.868-22.777,22.814-36.677,27.431-13.5,4.484-32.215,4.667-44.33-2.229-25.848-14.713-43.406-40.945-40.343-76.649,3.219-37.527,28.78-61.9,62.379-62.216,1.965-.019,6.413-.849,7.493-2.745C1749.732,1391.81,1747.57,1391.749,1745.857,1391.765Z"/>
          </g>
        </g>
        <g id="Group_130" data-name="Group 130">
          <path id="Path_183" data-name="Path 183" class="cls-2" d="M1691.252,1514.536c-1.959-.2-4.526-1.647-5.626-7.408l2.824-.542c.427,2.221,1.308,4.906,3.092,5.088Zm54.909-4.591c-.413,0-.84-.015-1.275-.047l.208-2.87c2.725.189,5.137.711,7.635.231l.542,2.826C1750.929,1510.535,1748.6,1509.945,1746.161,1509.945Zm-5.53-.724a42.319,42.319,0,0,1-7.707-3.211l1.22-2.6a39.7,39.7,0,0,0,7.15,3.017Zm16.758-.177-.87-2.744a37.2,37.2,0,0,0,7.538-3.331l1.483,2.465A40.176,40.176,0,0,1,1757.389,1509.044Zm-28.192-4.989c-2.681-1.571-5.223-2.9-7.054-4.706l2.019-2.046c1.639,1.615,4.047,2.839,6.491,4.27Zm-44.309-.956c-.479-2.7-.925-5.4-1.289-8.115l2.851-.383c.358,2.671.8,5.338,1.272,7.995Zm84.154-.056-1.756-2.279c2.063-1.591,3.613-4.115,5.265-6.136l2.228,1.822C1772.989,1498.639,1771.278,1501.318,1769.042,1503.043Zm-49.692-7.087c-.225-.354-.433-.711-.619-1.068-1.13-2.189-.893-4.8-1.377-7.271l2.823-.552c.433,2.206.106,4.556,1.11,6.5.147.282.312.565.492.848Zm57.919-2.936-2.419-1.556a32.617,32.617,0,0,0,3.415-7.006l2.719.938A35.466,35.466,0,0,1,1777.269,1493.02Zm-29.14-.138-.728-2.782a9.834,9.834,0,0,0,4.766-3.172,12.265,12.265,0,0,0,.813-1.049l2.364,1.645a15.918,15.918,0,0,1-1,1.287A12.538,12.538,0,0,1,1748.129,1492.882Zm-4.756-.011c-3.054-.795-4.969-3.234-6.238-6.058l2.626-1.179c.92,2.048,2.1,3.872,4.334,4.452Zm-60.256-1.987c-.29-2.945-.432-5.641-.432-8.245l2.147-.028c0,2.547.549,5.172.829,8.022Zm33.749-7.538c-.013-.319-.019-.636-.019-.956,0-2.6-.68-4.9.051-7.32l2.753.832c-.649,2.153.075,4.172.075,6.488,0,.284.005.569.013.852Zm40.5.21-2.714-.958a15.351,15.351,0,0,0,.864-5.119c0-.752.632-1.955.526-2.694l2.845-.413c.129.874-.489,2.225-.492,3.113A18.266,18.266,0,0,1,1757.363,1483.556Zm-18.655-1.166-2.345.3c.211-2.125.481-3.679,1.943-4.874a6.027,6.027,0,0,1,3.845-1.162h0l.034.891a4.413,4.413,0,0,0-2.672,1.419C1738.729,1479.759,1738.845,1481.03,1738.708,1482.39Zm43.4-1.108-2.818-.572a26.676,26.676,0,0,0,.541-5.265c0-.833-.046-1.249-.09-2.073l2.873-.156c.049.876.1,1.344.1,2.229A29.347,29.347,0,0,1,1782.109,1481.282Zm-97.584-1.61-1.426-.464c.21-2.772,1.017-6.232,2.527-8.032l2.173.561A16.166,16.166,0,0,0,1684.525,1479.672Zm36.548-7.308-2.561-1.314c.3-.591.63-1.168.983-1.733,1.176-1.874,2.91-2.7,4.626-4.2l1.888,2.173c-1.5,1.305-3.053,1.919-4.077,3.551C1721.626,1471.338,1721.339,1471.847,1721.073,1472.364Zm33.975-1.188c-.979-2.29-3.157-3.855-5.059-5.494l1.88-2.178c2.23,1.924,4.673,3.851,5.779,6.438l-1.259.713Zm24.306-1.733c-.378-2.6-.378-5.931-1.2-8.429l2.736-.9c.87,2.655.909,6.149,1.308,8.914Zm-91.165-1.868-1.852-.935c.871-2.659.915-5.787,2.195-8.257l2.556,1.325A55.071,55.071,0,0,0,1688.189,1467.575Zm40.917-2.5-1.456-2.481c2.523-1.481,5.071-3.362,7.876-3.789l.432,2.846C1733.512,1462.024,1731.317,1463.78,1729.106,1465.077Zm17.791-1.533a17.234,17.234,0,0,0-5-1.8,16.41,16.41,0,0,0-2.173-.271l.17-2.873a19.891,19.891,0,0,1,2.544.317,20.118,20.118,0,0,1,5.834,2.1Zm29.868-6.228c-1.029-2.415-2.862-4.431-4.293-6.643l2.419-1.562c1.518,2.349,3.428,4.511,4.523,7.077Zm-83.713-1.053-2.446-1.519c1.478-2.375,3.553-4.133,5.359-6.234l2.563,1.318C1696.818,1451.817,1694.45,1454.012,1693.052,1456.263Zm77.133-8.813c-1.62-2.088-2.866-4.458-4.806-6.207l1.926-2.137c2.066,1.863,3.43,4.36,5.151,6.582Zm-69.336.034-2.442-2.552a55.516,55.516,0,0,1,6.362-5.431l1.7,2.323C1704.325,1443.388,1702.71,1445.633,1700.849,1447.484Zm8.905-7.883-1.521-2.443a58.8,58.8,0,0,1,7.393-3.894l1.154,2.635A55.614,55.614,0,0,0,1709.754,1439.6Zm52.579-.867c-2.123-1.59-4.943-2.548-7.274-3.681l1.259-2.588c2.495,1.214,5.471,2.267,7.739,3.967Zm-41.853-4.3-.969-2.709c2.629-.941,5.933-.608,8.639-1.166l.58,2.818C1726.158,1433.9,1722.983,1433.532,1720.48,1434.43Zm30.965-.918a38.013,38.013,0,0,0-7.6-1.939l.416-2.846a40.935,40.935,0,0,1,8.176,2.084Zm-18.794-.8-.377-2.854c2.862-.376,5.055-1.626,7.783-1.519l-.115,2.876C1737.381,1431.1,1735.344,1432.352,1732.651,1432.709Z"/>
        </g>
      </g>
    </g>
  </g>
</svg>
