<svg xmlns="http://www.w3.org/2000/svg" width="279.028" height="154.132" viewBox="0 0 279.028 154.132">
  <defs>
    <style>
      .cls-1 {
        fill: #8bc9d7;
      }

      .cls-2 {
        fill: #95b267;
      }
    </style>
  </defs>
  <g id="Group_2123" data-name="Group 2123" transform="translate(-807.786 -1390.873)">
    <g id="Group_96" data-name="Group 96" transform="translate(-1472)">
      <path id="Path_72" data-name="Path 72" class="cls-1" d="M2359.5,1507.2c20.162-1.1,29.808-11.626,28.676-31.282-.781-13.579-18.113-33.828-21.053-38.248-1.088-1.637-9.631-12.118-10.1-12.568a3.2,3.2,0,0,0-4.441.2l-.038.041c-.591.706-14.067,23.058-14.828,24.115-.866,1.2-10.876,19.771-10.3,29.781.492,8.552.448,16.519,4.531,21.2C2338.607,1508.084,2348.116,1507.825,2359.5,1507.2Zm-3.6-74.491c1.415-.276,9.784,13.173,12.349,15.809s13.342,18.816,13.855,27.733a24.555,24.555,0,0,1-11.938,22.832c-2.4,1.38-9.612,2.708-16.483,3.084-17.035.932-21.24-6.111-20.189-23.256C2334.5,1462.524,2354.486,1432.985,2355.9,1432.71Z"/>
      <g id="Group_92" data-name="Group 92">
        <g id="Group_91" data-name="Group 91">
          <path id="Path_73" data-name="Path 73" class="cls-1" d="M2354.464,1390.905c-32.775.3-59.766,17.324-70.075,49.516-10.949,34.192-2.158,68.557,24.153,89.25,27.183,21.378,66.376,19.809,92.679-1,13.178-10.427,23.45-24.806,29.92-40.081,6-14.167,7.842-32.558,3.376-47.592-9.422-31.715-47.688-47.921-78.806-50.095-2.495-.175-6.2.478-8.14,2.126-1.541,1.306-1.761,2.534.744,2.709,25.5,1.782,46.572,1.49,67.05,23.343,27.149,28.972,23.252,57.708-4.162,91.638-9.139,11.311-23.645,23.684-40.662,26.787-14.339,2.614-30.381,2.874-43.3-3.1-36-16.658-49.922-47.576-41.272-82.139,7.838-31.313,29.13-56.216,63.593-56.531,2.016-.018,6.578-.848,7.686-2.744C2358.439,1390.95,2356.221,1390.889,2354.464,1390.905Z"/>
        </g>
      </g>
      <g id="Group_93" data-name="Group 93">
        <path id="Path_74" data-name="Path 74" class="cls-1" d="M2294.7,1501.777a14.825,14.825,0,0,1,2.85-2.816l.555.818a17.627,17.627,0,0,0-3.186,2.194Z"/>
        <path id="Path_75" data-name="Path 75" class="cls-1" d="M2304.564,1495.723a27.794,27.794,0,0,1,7.764-.764l-.147,2.355a30.583,30.583,0,0,0-7.225.22Z"/>
        <path id="Path_76" data-name="Path 76" class="cls-1" d="M2320,1496.12c1.247.309,2.466.7,3.676,1.091s2.386.864,3.561,1.318l-.862,2.261c-1.177-.4-2.362-.755-3.534-1.13s-2.353-.706-3.53-1.029Z"/>
        <path id="Path_77" data-name="Path 77" class="cls-1" d="M2334.152,1501.476l3.465,1.363c.581.217,1.156.467,1.745.657l1.774.552-.269,1c-1.232-.3-2.463-.6-3.668-.961l-3.653-1.022Z"/>
        <path id="Path_78" data-name="Path 78" class="cls-1" d="M2348.445,1505.335a24.4,24.4,0,0,0,7.328-.59l.265,1.24a32.149,32.149,0,0,1-7.659.254Z"/>
        <path id="Path_79" data-name="Path 79" class="cls-1" d="M2362.289,1501.778a50.138,50.138,0,0,1,6.273-4.331l1.118,2.249c-2.086.918-4.069,2.425-6.308,3.707Z"/>
        <path id="Path_80" data-name="Path 80" class="cls-1" d="M2376.8,1496.475a27.535,27.535,0,0,1,7.271,3.117l-1.611,2.627a25.736,25.736,0,0,0-6.358-3.011Z"/>
        <path id="Path_81" data-name="Path 81" class="cls-1" d="M2390.477,1503.146a17.584,17.584,0,0,0,3.213,1.2,11.23,11.23,0,0,0,3.264.35l.212,2.864a13.54,13.54,0,0,1-4.2-.3,20.736,20.736,0,0,1-3.846-1.307Z"/>
        <path id="Path_82" data-name="Path 82" class="cls-1" d="M2403.588,1502.767l3.394-1.607c.575-.259,1.12-.535,1.719-.778l1.831-.7.671,1.686-1.608.793c-.536.277-1.077.616-1.614.921l-3.247,1.847Z"/>
        <path id="Path_83" data-name="Path 83" class="cls-1" d="M2418.309,1499.075a7.483,7.483,0,0,1,3.593,1.915l-.191.223a7.636,7.636,0,0,0-3.56-1.252Z"/>
      </g>
      <g id="Group_94" data-name="Group 94">
        <path id="Path_84" data-name="Path 84" class="cls-1" d="M2304.564,1510.32a27.8,27.8,0,0,1,7.764-.764l-.147,2.355a30.583,30.583,0,0,0-7.225.22Z"/>
        <path id="Path_85" data-name="Path 85" class="cls-1" d="M2320,1510.717c1.247.309,2.466.7,3.676,1.091s2.386.864,3.561,1.318l-.862,2.261c-1.177-.4-2.362-.755-3.534-1.13s-2.353-.706-3.53-1.029Z"/>
        <path id="Path_86" data-name="Path 86" class="cls-1" d="M2334.152,1516.073l3.465,1.363c.581.217,1.156.467,1.745.657l1.774.552-.269,1c-1.232-.3-2.463-.6-3.668-.961l-3.653-1.022Z"/>
        <path id="Path_87" data-name="Path 87" class="cls-1" d="M2348.445,1519.932a24.4,24.4,0,0,0,7.328-.59l.265,1.24a32.149,32.149,0,0,1-7.659.254Z"/>
        <path id="Path_88" data-name="Path 88" class="cls-1" d="M2362.289,1516.375a50.151,50.151,0,0,1,6.273-4.331l1.118,2.249c-2.086.918-4.069,2.425-6.308,3.707Z"/>
        <path id="Path_89" data-name="Path 89" class="cls-1" d="M2376.8,1511.072a27.538,27.538,0,0,1,7.271,3.117l-1.611,2.627a25.736,25.736,0,0,0-6.358-3.011Z"/>
        <path id="Path_90" data-name="Path 90" class="cls-1" d="M2390.477,1517.743a17.592,17.592,0,0,0,3.213,1.2,11.23,11.23,0,0,0,3.264.35l.212,2.864a13.536,13.536,0,0,1-4.2-.305,20.727,20.727,0,0,1-3.846-1.307Z"/>
        <path id="Path_91" data-name="Path 91" class="cls-1" d="M2403.588,1517.364l3.394-1.607c.575-.259,1.12-.535,1.719-.778l1.831-.7.671,1.686-1.608.793c-.536.277-1.077.616-1.614.921l-3.247,1.847Z"/>
      </g>
      <g id="Group_95" data-name="Group 95">
        <path id="Path_92" data-name="Path 92" class="cls-1" d="M2315.114,1522.57c1.246.309,2.465.7,3.675,1.09s2.386.865,3.561,1.319l-.862,2.261c-1.176-.4-2.362-.755-3.534-1.131s-2.352-.706-3.529-1.029Z"/>
        <path id="Path_93" data-name="Path 93" class="cls-1" d="M2329.26,1527.926l3.465,1.362c.581.217,1.156.467,1.745.658l1.774.552-.269,1c-1.231-.3-2.463-.6-3.668-.961l-3.653-1.022Z"/>
        <path id="Path_94" data-name="Path 94" class="cls-1" d="M2343.553,1531.785a24.433,24.433,0,0,0,7.328-.59l.265,1.24a32.192,32.192,0,0,1-7.659.254Z"/>
        <path id="Path_95" data-name="Path 95" class="cls-1" d="M2357.4,1528.228a50.336,50.336,0,0,1,6.273-4.332l1.119,2.249c-2.086.919-4.07,2.425-6.309,3.708Z"/>
        <path id="Path_96" data-name="Path 96" class="cls-1" d="M2371.906,1522.925a27.565,27.565,0,0,1,7.271,3.116l-1.611,2.628a25.745,25.745,0,0,0-6.358-3.012Z"/>
        <path id="Path_97" data-name="Path 97" class="cls-1" d="M2387.486,1532.8a20.727,20.727,0,0,1-3.846-1.307l1.358-2.8a17.606,17.606,0,0,0,3.213,1.2,11.233,11.233,0,0,0,3.265.35"/>
      </g>
      <path id="Path_98" data-name="Path 98" class="cls-1" d="M2343.633,1484.48c.331.646.572,2.926.993,3.873a8.767,8.767,0,0,0,5.587,4.841c.161.034,4.96-.775,6.165-1.613.29-.2,2.167,1.411,1.9,1.855-.629,1.059-3.5,1.982-6.456,2.179-1.241.083-5.214-.121-7.324-1.453a40.373,40.373,0,0,1-3.228-5.567,30.987,30.987,0,0,1-.453-4.594S2343.3,1483.835,2343.633,1484.48Z"/>
    </g>
    <g id="Group_106" data-name="Group 106" transform="translate(-1472)">
      <g id="Group_105" data-name="Group 105">
        <g id="Group_98" data-name="Group 98">
          <g id="Group_97" data-name="Group 97">
            <path id="Path_99" data-name="Path 99" class="cls-2" d="M2474.141,1490.268a25.393,25.393,0,0,1-6.294-7.1,33.483,33.483,0,0,1-5.459-5.452c-4.36-5.277-9.765-12.7-10.756-20.8-.808-6.607.938-13.881.977-17.169,2.2.394,5.613,2.709,9.593,3.749,5.644,1.474,12.479,2.573,18.167,4.792,1.144-.781,2.327-1.533,3.535-2.256-6.153-3.213-13.693-5.209-19.913-6.913-7.443-2.04-12.7-4.155-13.25-4.232l-.042,0a2.322,2.322,0,0,0-2.51,2.113c-.063,1.256-1.454,30.9,9.248,43.848C2462.673,1487.174,2468.258,1490.314,2474.141,1490.268Z"/>
          </g>
          <path id="Path_100" data-name="Path 100" class="cls-2" d="M2514.66,1484.117c-8.05,14.244-19.208,17.876-33.187,10.832l-5.436,9.618a2.254,2.254,0,0,1-3.925-2.218l5.436-9.619c-13.245-8.342-15.89-19.773-7.84-34.017,5.325-9.424,18.911-15.65,29.127-20.5,8.013-3.808,13.541-7.262,14.145-7.459l.046-.013a2.667,2.667,0,0,1,3.267,1.885C2516.618,1434.03,2524.164,1467.3,2514.66,1484.117Zm1.75-28.254c-.417-7.641-3.859-15.523-4.566-19.237-2.406.889-5.807,4.2-10.1,6.176-9.8,4.515-23.294,8.548-28.181,17.2-4.313,7.631-6.291,15.55-3.3,21.124,1.686,3.137,5.9,4.637,9.824,7.114l13.323-23.574a2.254,2.254,0,0,1,3.925,2.219l-5.469,9.676,5.923-.843a2.255,2.255,0,0,1,.635,4.465l-9.357,1.331-5.055,8.945c11.509,5.777,17.673,3.047,24.413-8.879C2512.3,1474.724,2516.921,1465.236,2516.41,1455.863Z"/>
        </g>
        <g id="Group_100" data-name="Group 100">
          <g id="Group_99" data-name="Group 99">
            <path id="Path_101" data-name="Path 101" class="cls-2" d="M2480.909,1392.336c-31.953.3-60.865,19.44-70.6,50.347-9.822,31.184-1.061,68.736,25.831,88.418,27.476,20.11,63.1,17.8,88.741-3.012a100.982,100.982,0,0,0,29.258-39.659c5.85-14.167,5.993-32.512,1.639-47.546-9.186-31.715-43.507-48.553-73.652-48.553-2.439,0-6.04.478-7.936,2.127-1.5,1.306-1.723,2.709.726,2.709,26.375,0,53.776,5.3,69.059,31.079,17.884,30.164,11.271,57.259-8.108,81.312-9.033,11.213-25.383,24.759-39.283,29.377-13.5,4.483-33.73,3.064-45.845-3.832-25.848-14.713-42.621-36.235-37.675-76.812,4.649-38.153,23.606-61.129,63.068-61.129,1.965,0,6.413-.849,7.493-2.744C2484.784,1392.381,2482.622,1392.32,2480.909,1392.336Z"/>
          </g>
        </g>
        <g id="Group_101" data-name="Group 101">
          <path id="Path_102" data-name="Path 102" class="cls-2" d="M2420.032,1506.909h115.637c1.787,0,4.31,1.346,5.771.249,1.084-.813,1.258-1.761-.477-1.787-31.729-.478-47.025-.439-80.724-.439-4.846,0-24.3-.187-29.143-.187-1.788,0-10.865-1.194-12.327-.1-1.083.813-.472,2.261,1.263,2.261Z"/>
        </g>
        <g id="Group_102" data-name="Group 102">
          <path id="Path_103" data-name="Path 103" class="cls-2" d="M2426.347,1515.624c2.335-.187,4.67-.348,7-.436v1.072c-2.334-.089-4.669-.249-7-.437Z"/>
          <path id="Path_104" data-name="Path 104" class="cls-2" d="M2441.237,1514.935c4.38-.1,8.761-.142,13.141.019v1.539c-4.38.161-8.761.123-13.141.02Z"/>
          <path id="Path_105" data-name="Path 105" class="cls-2" d="M2462.264,1515.293q6.57.23,13.142.026v.81q-6.572-.2-13.142.026Z"/>
          <path id="Path_106" data-name="Path 106" class="cls-2" d="M2483.291,1515.021c4.38-.159,8.761-.234,13.142-.29v1.985c-4.381-.056-8.762-.13-13.142-.289Z"/>
          <path id="Path_107" data-name="Path 107" class="cls-2" d="M2504.318,1514.691c4.38,0,8.761.06,13.142.212v1.642c-4.381.152-8.762.212-13.142.211Z"/>
          <path id="Path_108" data-name="Path 108" class="cls-2" d="M2525.345,1515.2c2.335.087,4.67.283,7,.419v.2c-2.334.136-4.669.332-7,.42Z"/>
        </g>
        <g id="Group_103" data-name="Group 103">
          <path id="Path_109" data-name="Path 109" class="cls-2" d="M2444.792,1535c2.335-.317,4.67-.465,7.005-.6v1.4c-2.335-.135-4.67-.283-7.005-.6Z"/>
          <path id="Path_110" data-name="Path 110" class="cls-2" d="M2460.239,1534.225c2.345.056,4.69.28,7.035.421a68.872,68.872,0,0,0,7.036.108v.7a68.8,68.8,0,0,0-7.036.108c-2.345.141-4.69.365-7.035.421Z"/>
          <path id="Path_111" data-name="Path 111" class="cls-2" d="M2482.752,1534.315c4.69-.177,9.38-.328,14.071-.243v2.062c-4.691.085-9.381-.066-14.071-.243Z"/>
          <path id="Path_112" data-name="Path 112" class="cls-2" d="M2505.265,1534.406c2.335.153,4.67.315,7.005.6v.2c-2.335.283-4.67.445-7.005.6Z"/>
        </g>
        <g id="Group_104" data-name="Group 104">
          <path id="Path_113" data-name="Path 113" class="cls-2" d="M2524.644,1524.7q-3.5.339-7,.489v-1.176q3.5.146,7,.489Z"/>
          <path id="Path_114" data-name="Path 114" class="cls-2" d="M2509.234,1525.442c-4.669.17-9.339-.117-14.009-.364v-.961c4.67-.246,9.34-.534,14.009-.363Z"/>
          <path id="Path_115" data-name="Path 115" class="cls-2" d="M2486.82,1524.926c-4.67.013-9.34.4-14.009.5v-1.664c4.669.106,9.339.491,14.009.5Z"/>
          <path id="Path_116" data-name="Path 116" class="cls-2" d="M2464.405,1525.607q-7,.147-14.009-.1v-1.823q7-.24,14.009-.1Z"/>
          <path id="Path_117" data-name="Path 117" class="cls-2" d="M2441.99,1525.174q-3.5-.168-7-.477v-.2q3.5-.306,7-.477Z"/>
        </g>
      </g>
    </g>
  </g>
</svg>
