<svg xmlns="http://www.w3.org/2000/svg" width="27.161" height="27.161" viewBox="0 0 27.161 27.161">
  <defs>
    <style>
      .cls-1 {
        fill: #6d6e71;
      }
    </style>
  </defs>
  <g id="Group_29" data-name="Group 29" transform="translate(-934.716 -441.945)">
    <g id="Group_20" data-name="Group 20">
      <path id="Path_17" data-name="Path 17" class="cls-1" d="M953.475,454.958h3.379c-.017.166-.032.321-.05.476q-.168,1.475-.337,2.949c-.012.1-.034.208-.037.312,0,.085-.036.1-.116.1-.442,0-.885,0-1.327,0h-1.4c-.033,0-.066,0-.112.005v8.625h-3.844v-8.622H946.76v-3.847h2.871v-.149c0-.761-.014-1.523.006-2.283a4.511,4.511,0,0,1,.86-2.663,3.941,3.941,0,0,1,2.174-1.434,5.546,5.546,0,0,1,1.445-.187,25.122,25.122,0,0,1,2.515.116l.128.015v3.05c-.292,0-.58,0-.867,0-.412,0-.825,0-1.237.017a1.949,1.949,0,0,0-.452.079.912.912,0,0,0-.7.925c-.029.527-.022,1.056-.028,1.584C953.472,454.333,953.475,454.636,953.475,454.958Z"/>
    </g>
    <path id="Path_18" data-name="Path 18" class="cls-1" d="M957.35,441.945H939.243a4.527,4.527,0,0,0-4.527,4.527V464.58a4.526,4.526,0,0,0,4.527,4.526H957.35a4.526,4.526,0,0,0,4.527-4.526V446.472A4.527,4.527,0,0,0,957.35,441.945Zm2.264,22.635a2.264,2.264,0,0,1-2.264,2.263H939.243a2.264,2.264,0,0,1-2.264-2.263V446.472a2.264,2.264,0,0,1,2.264-2.263H957.35a2.264,2.264,0,0,1,2.264,2.263Z"/>
  </g>
</svg>
