<svg xmlns="http://www.w3.org/2000/svg" width="27.161" height="27.161" viewBox="0 0 27.161 27.161">
  <defs>
    <style>
      .cls-1 {
        fill: #6d6e71;
      }
    </style>
  </defs>
  <g id="Group_28" data-name="Group 28" transform="translate(-887.363 -441.945)">
    <path id="Path_15" data-name="Path 15" class="cls-1" d="M910,441.945H891.89a4.527,4.527,0,0,0-4.527,4.527V464.58a4.526,4.526,0,0,0,4.527,4.526H910a4.526,4.526,0,0,0,4.527-4.526V446.472A4.527,4.527,0,0,0,910,441.945Zm2.264,22.635A2.264,2.264,0,0,1,910,466.843H891.89a2.263,2.263,0,0,1-2.263-2.263V446.472a2.263,2.263,0,0,1,2.263-2.263H910a2.264,2.264,0,0,1,2.264,2.263Z"/>
    <path id="Path_16" data-name="Path 16" class="cls-1" d="M900.944,448.736a6.79,6.79,0,1,0,6.79,6.79A6.791,6.791,0,0,0,900.944,448.736Zm0,11.317a4.527,4.527,0,1,1,4.527-4.527A4.527,4.527,0,0,1,900.944,460.053Z"/>
    <circle id="Ellipse_4" data-name="Ellipse 4" class="cls-1" cx="1.698" cy="1.698" r="1.698" transform="translate(906.602 446.472)"/>
  </g>
</svg>
