<svg xmlns="http://www.w3.org/2000/svg" width="32.066" height="27.485" viewBox="0 0 32.066 27.485">
  <defs>
    <style>
      .cls-1, .cls-4 {
        fill: #6d6e71;
      }

      .cls-2 {
        fill: none;
        stroke-miterlimit: 10;
      }

      .cls-3, .cls-4 {
        stroke: none;
      }
    </style>
  </defs>
  <g id="Group_30" data-name="Group 30" transform="translate(-981.77 -441.729)">
    <path id="Path_12" data-name="Path 12" class="cls-1" d="M1013.5,453.714c-.042-.421-.126-.841-.21-1.3l-.378-1.26a7.955,7.955,0,0,0-.505-1.261,10.228,10.228,0,0,0-.588-1.176c-.21-.378-.462-.757-.714-1.135-.294-.336-.546-.714-.841-1.051a9.694,9.694,0,0,0-.924-.923,9.366,9.366,0,0,0-1.008-.883c-.378-.252-.715-.5-1.135-.756a6,6,0,0,0-1.134-.63,10.648,10.648,0,0,0-1.219-.547c-.42-.168-.84-.294-1.26-.42-.42-.084-.882-.21-1.3-.252-.463-.084-.883-.126-1.345-.168-.42-.042-.882-.042-1.3-.042v.042c-.462,0-.924.042-1.344.084a7.152,7.152,0,0,0-1.3.252,6.647,6.647,0,0,0-1.3.378,10.248,10.248,0,0,0-2.4,1.093,8.427,8.427,0,0,0-1.134.714,10.12,10.12,0,0,0-1.051.84c-.336.3-.63.589-.966.925a6.7,6.7,0,0,0-.841,1.008,6.311,6.311,0,0,0-.756,1.093,10.683,10.683,0,0,0-.672,1.176c-.168.378-.336.756-.5,1.218-.168.421-.294.84-.42,1.261-.084.252-.126.546-.21.84q-.064.441-.127.883a6.314,6.314,0,0,0-.084.84,6.2,6.2,0,0,0-.042.882,3.855,3.855,0,0,0,.042.715l-.042.042c.042.21.042.461.084.714v.126l.042.21.042.336a2.116,2.116,0,0,0,.085.462l-3.4,5.883-.252.461-.042.042-.294.505-.21.42-.462.8.924-.042h.462l.673-.042h.5l6.554-.294a2.309,2.309,0,0,0,.378.294,4.661,4.661,0,0,0,.547.421l.084.083a6.21,6.21,0,0,0,.546.336,4.23,4.23,0,0,0,.63.379,6.792,6.792,0,0,0,.756.42,4.561,4.561,0,0,0,.8.336,6.117,6.117,0,0,0,.8.294,3.462,3.462,0,0,0,.8.252c.42.126.883.21,1.3.294.462.085.924.127,1.344.168h1.3a11.1,11.1,0,0,0,1.218-.083h.126c.463-.085.883-.169,1.3-.253a11.785,11.785,0,0,0,1.3-.378c.378-.126.8-.294,1.219-.462l1.008-.5.21-.126c.336-.211.714-.463,1.093-.715a15.17,15.17,0,0,0,2.016-1.764c.294-.337.589-.673.841-1.008a8.6,8.6,0,0,0,.756-1.093c.252-.378.462-.8.672-1.176a10.582,10.582,0,0,0,.5-1.219c.169-.42.295-.84.421-1.26a11.865,11.865,0,0,0,.294-1.3c.042-.462.126-.883.126-1.344.042-.42.042-.841.042-1.3A7.622,7.622,0,0,0,1013.5,453.714Zm-1.82,2.472c-.045.362-.09.769-.135,1.132a9.144,9.144,0,0,1-.227,1.085c-.135.408-.226.77-.362,1.086a7.057,7.057,0,0,1-.452,1.041c-.181.362-.362.679-.543,1s-.408.633-.634.95-.5.589-.724.86c-.271.272-.543.543-.814.77-.317.271-.589.5-.905.723s-.634.408-.951.634a10.938,10.938,0,0,1-1.041.5,4.114,4.114,0,0,1-1.04.407,9.95,9.95,0,0,1-1.086.317,8.244,8.244,0,0,1-1.132.226c-.362.045-.724.045-1.086.091a8.934,8.934,0,0,1-1.131-.046,4.543,4.543,0,0,1-1.132-.136,9.629,9.629,0,0,1-1.131-.226c-.271-.09-.5-.135-.724-.226a6.044,6.044,0,0,1-.679-.226l-.136-.091h-.045a2.054,2.054,0,0,1-.452-.226c-.227-.09-.453-.226-.679-.317a4.609,4.609,0,0,1-.588-.407c-.227-.136-.453-.272-.634-.407a4.824,4.824,0,0,1-.543-.453,5.34,5.34,0,0,1-.543-.5l-.136-.09-.09-.091-.181-.18-.227.044h-.86l-.226.046-4.254.181,1.358-2.308.5-.9.362-.588.407-.77.045-.045.046-.091.045-.09.09-.181-.045-.226v-.136l-.045-.136c-.045-.226-.091-.452-.136-.679-.045-.271-.09-.5-.136-.723,0-.227-.045-.5-.045-.725a3.887,3.887,0,0,1,0-.724V454.6c.045-.226.045-.452.091-.724s.09-.5.135-.724.091-.453.136-.724c.136-.362.226-.724.362-1.086.136-.317.272-.679.453-1.041.181-.316.362-.679.543-1,.181-.271.362-.543.543-.769l.09-.135a6.925,6.925,0,0,1,.77-.86c.226-.272.5-.543.769-.815.317-.226.588-.452.905-.679s.634-.452.95-.633a10.938,10.938,0,0,1,1.041-.5,7.153,7.153,0,0,1,1.041-.452c.362-.091.724-.227,1.086-.317.362-.046.724-.136,1.131-.182a8.877,8.877,0,0,1,1.132-.09h1.131c.362.045.724.09,1.132.136.316.09.724.136,1.085.271.408.091.77.226,1.087.317.362.136.724.317,1.04.453.362.181.679.362,1,.543q.476.339.95.679l.091.044a12,12,0,0,1,1.538,1.494,9.123,9.123,0,0,1,1.313,1.856,5.429,5.429,0,0,1,.543.995c.136.362.271.679.407,1.041a9.888,9.888,0,0,1,.317,1.086,11.374,11.374,0,0,1,.181,1.132l.045.09a8.061,8.061,0,0,1,.045,1.041A4.65,4.65,0,0,1,1011.677,456.186Z"/>
    <g id="Path_13" data-name="Path 13" class="cls-2">
      <path class="cls-3" d="M1013.462,453.717c-.042-.418-.125-.835-.209-1.3q-.187-.625-.376-1.253a7.792,7.792,0,0,0-.5-1.253,10.133,10.133,0,0,0-.585-1.17c-.209-.376-.46-.752-.71-1.128-.293-.334-.543-.71-.836-1.045a9.482,9.482,0,0,0-.919-.918,9.363,9.363,0,0,0-1-.878c-.377-.25-.711-.5-1.129-.751a5.928,5.928,0,0,0-1.127-.627,10.609,10.609,0,0,0-1.212-.543c-.418-.167-.835-.293-1.253-.418-.418-.083-.877-.209-1.3-.251-.46-.083-.878-.125-1.337-.167-.418-.042-.877-.042-1.295-.042v.042c-.46,0-.919.042-1.337.084a6.964,6.964,0,0,0-1.295.251,6.572,6.572,0,0,0-1.295.375,10.178,10.178,0,0,0-2.381,1.086,8.451,8.451,0,0,0-1.128.711,10.116,10.116,0,0,0-1.045.835c-.334.293-.626.585-.961.919a6.674,6.674,0,0,0-.835,1,6.332,6.332,0,0,0-.752,1.086,10.577,10.577,0,0,0-.669,1.17c-.167.376-.334.752-.5,1.211-.167.418-.292.836-.418,1.254-.083.25-.125.543-.208.835l-.126.877a6.263,6.263,0,0,0-.083.836,6.125,6.125,0,0,0-.042.877,3.805,3.805,0,0,0,.042.711l-.042.041c.042.209.042.46.083.711v.125l.042.209.042.334a2.144,2.144,0,0,0,.084.459l-3.384,5.849-.251.459-.042.042-.292.5-.209.417-.46.794.92-.042h.459l.668-.042h.5l6.517-.292a2.238,2.238,0,0,0,.376.292,4.6,4.6,0,0,0,.543.418l.083.084a6.323,6.323,0,0,0,.544.334,4.144,4.144,0,0,0,.626.376,6.733,6.733,0,0,0,.752.418,4.5,4.5,0,0,0,.794.334,6.017,6.017,0,0,0,.794.293,3.465,3.465,0,0,0,.793.25c.418.125.878.209,1.3.292.46.084.92.126,1.337.168h1.295a10.979,10.979,0,0,0,1.212-.084h.125c.46-.084.878-.167,1.295-.251a11.59,11.59,0,0,0,1.295-.375c.376-.126.794-.293,1.212-.46l1-.5.209-.125c.334-.21.71-.46,1.086-.711a10.013,10.013,0,0,0,1.045-.835,10.181,10.181,0,0,0,.961-.919c.292-.335.585-.669.835-1a8.43,8.43,0,0,0,.752-1.086c.251-.376.46-.794.669-1.17a10.461,10.461,0,0,0,.5-1.212c.167-.417.292-.835.418-1.253a11.655,11.655,0,0,0,.292-1.295c.042-.459.125-.877.125-1.337a12.905,12.905,0,0,0,.042-1.3A7.651,7.651,0,0,0,1013.462,453.717Z"/>
      <path class="cls-4" d="M 999.676025390625 441.9779968261719 L 999.676025390625 442.0199890136719 C 999.2160034179688 442.0199890136719 998.7570190429688 442.06201171875 998.3389892578125 442.10400390625 C 997.9210205078125 442.1449890136719 997.4619750976562 442.22900390625 997.0440063476562 442.3550109863281 C 996.583984375 442.43798828125 996.1669921875 442.56298828125 995.7490234375 442.7300109863281 C 995.3309936523438 442.8559875488281 994.9130249023438 443.0230102539062 994.5369873046875 443.1900024414062 C 994.1199951171875 443.3989868164062 993.7440185546875 443.5660095214844 993.3679809570312 443.8160095214844 C 992.9920043945312 444.0260009765625 992.6160278320312 444.2340087890625 992.239990234375 444.5270080566406 C 991.864013671875 444.7770080566406 991.5289916992188 445.0700073242188 991.1950073242188 445.3619995117188 C 990.8610229492188 445.6549987792969 990.5689697265625 445.9469909667969 990.2340087890625 446.281005859375 C 989.9420166015625 446.572998046875 989.6500244140625 446.9079895019531 989.3989868164062 447.2839965820312 C 989.1069946289062 447.6180114746094 988.8560180664062 447.9939880371094 988.64697265625 448.3699951171875 C 988.39599609375 448.7460021972656 988.18701171875 449.1220092773438 987.97802734375 449.5400085449219 C 987.8109741210938 449.9159851074219 987.6439819335938 450.2919921875 987.4769897460938 450.7510070800781 C 987.3099975585938 451.1690063476562 987.1849975585938 451.5870056152344 987.0590209960938 452.0050048828125 C 986.9760131835938 452.2550048828125 986.9340209960938 452.5480041503906 986.8510131835938 452.8399963378906 C 986.8090209960938 453.1319885253906 986.7670288085938 453.4249877929688 986.7249755859375 453.7170104980469 C 986.6829833984375 454.010009765625 986.6420288085938 454.3030090332031 986.6420288085938 454.5530090332031 C 986.5999755859375 454.8450012207031 986.5999755859375 455.1380004882812 986.5999755859375 455.4299926757812 C 986.5999755859375 455.6809997558594 986.5999755859375 455.9320068359375 986.6420288085938 456.1409912109375 L 986.5999755859375 456.1820068359375 C 986.6420288085938 456.3909912109375 986.6420288085938 456.6419982910156 986.6829833984375 456.8930053710938 L 986.6829833984375 457.0180053710938 L 986.7249755859375 457.2269897460938 L 986.7670288085938 457.5610046386719 C 986.7670288085938 457.6860046386719 986.8090209960938 457.8529968261719 986.8510131835938 458.0199890136719 L 983.4669799804688 463.8689880371094 L 983.2160034179688 464.3280029296875 L 983.1740112304688 464.3699951171875 L 982.8820190429688 464.8720092773438 L 982.6729736328125 465.2890014648438 L 982.2130126953125 466.0830078125 L 983.1329956054688 466.0409851074219 L 983.5919799804688 466.0409851074219 L 984.260009765625 465.9989929199219 L 984.7620239257812 465.9989929199219 L 991.2789916992188 465.7070007324219 C 991.4039916992188 465.8320007324219 991.5289916992188 465.9159851074219 991.655029296875 465.9989929199219 C 991.822021484375 466.1669921875 992.031005859375 466.2919921875 992.197998046875 466.4169921875 L 992.281005859375 466.5010070800781 C 992.448974609375 466.6260070800781 992.6160278320312 466.7099914550781 992.8250122070312 466.8349914550781 C 992.9920043945312 466.9599914550781 993.2009887695312 467.0859985351562 993.4509887695312 467.2109985351562 C 993.7020263671875 467.3779907226562 993.9520263671875 467.5039978027344 994.2030029296875 467.6289978027344 C 994.4539794921875 467.7539978027344 994.7039794921875 467.8800048828125 994.9970092773438 467.9630126953125 C 995.2470092773438 468.0889892578125 995.5399780273438 468.1719970703125 995.791015625 468.2560119628906 C 996.0830078125 468.3810119628906 996.333984375 468.4639892578125 996.583984375 468.5060119628906 C 997.0020141601562 468.6310119628906 997.4619750976562 468.7149963378906 997.8790283203125 468.7980041503906 C 998.3389892578125 468.8819885253906 998.7990112304688 468.9240112304688 999.2160034179688 468.9660034179688 L 1000.510986328125 468.9660034179688 C 1000.929016113281 468.9660034179688 1001.346984863281 468.9240112304688 1001.723022460938 468.8819885253906 L 1001.765014648438 468.8819885253906 L 1001.848022460938 468.8819885253906 C 1002.307983398438 468.7980041503906 1002.726013183594 468.7149963378906 1003.143005371094 468.6310119628906 C 1003.60302734375 468.5060119628906 1004.02099609375 468.4230041503906 1004.43798828125 468.2560119628906 C 1004.814025878906 468.1300048828125 1005.231994628906 467.9630126953125 1005.650024414062 467.7959899902344 C 1005.984008789062 467.6289978027344 1006.317993164062 467.4620056152344 1006.651977539062 467.2950134277344 L 1006.861022949219 467.1700134277344 C 1007.195007324219 466.9599914550781 1007.570983886719 466.7099914550781 1007.947021484375 466.4590148925781 C 1008.323974609375 466.2090148925781 1008.658020019531 465.9159851074219 1008.992004394531 465.6239929199219 C 1009.325988769531 465.3309936523438 1009.659973144531 465.0390014648438 1009.953002929688 464.7049865722656 C 1010.244995117188 464.3699951171875 1010.538024902344 464.0360107421875 1010.788024902344 463.7019958496094 C 1011.080993652344 463.3259887695312 1011.330993652344 462.9920043945312 1011.539978027344 462.6159973144531 C 1011.791015625 462.239990234375 1012 461.8219909667969 1012.208984375 461.4460144042969 C 1012.3759765625 461.0700073242188 1012.585021972656 460.6520080566406 1012.710021972656 460.2340087890625 C 1012.877014160156 459.8169860839844 1013.002014160156 459.3989868164062 1013.127990722656 458.9809875488281 C 1013.252990722656 458.5639953613281 1013.336975097656 458.14599609375 1013.419982910156 457.6860046386719 C 1013.461975097656 457.2269897460938 1013.544982910156 456.8089904785156 1013.544982910156 456.3489990234375 C 1013.586975097656 455.9320068359375 1013.586975097656 455.5140075683594 1013.586975097656 455.0539855957031 C 1013.586975097656 454.6369934082031 1013.544982910156 454.177001953125 1013.461975097656 453.7170104980469 C 1013.419982910156 453.2990112304688 1013.336975097656 452.8819885253906 1013.252990722656 452.4219970703125 C 1013.127990722656 452.0050048828125 1013.002014160156 451.5870056152344 1012.877014160156 451.1690063476562 C 1012.752014160156 450.7510070800781 1012.585021972656 450.3340148925781 1012.3759765625 449.9159851074219 C 1012.208984375 449.4979858398438 1012 449.1220092773438 1011.791015625 448.7460021972656 C 1011.581970214844 448.3699951171875 1011.330993652344 447.9939880371094 1011.080993652344 447.6180114746094 C 1010.788024902344 447.2839965820312 1010.538024902344 446.9079895019531 1010.244995117188 446.572998046875 C 1009.953002929688 446.239013671875 1009.659973144531 445.9469909667969 1009.325988769531 445.6549987792969 C 1008.992004394531 445.3200073242188 1008.658020019531 445.0280151367188 1008.323974609375 444.7770080566406 C 1007.947021484375 444.5270080566406 1007.612976074219 444.2760009765625 1007.195007324219 444.0260009765625 C 1006.861022949219 443.7749938964844 1006.443969726562 443.5660095214844 1006.067993164062 443.3989868164062 C 1005.692016601562 443.1900024414062 1005.273986816406 443.0230102539062 1004.856018066406 442.8559875488281 C 1004.43798828125 442.6889953613281 1004.02099609375 442.56298828125 1003.60302734375 442.43798828125 C 1003.184997558594 442.3550109863281 1002.726013183594 442.22900390625 1002.307983398438 442.18701171875 C 1001.848022460938 442.10400390625 1001.429992675781 442.06201171875 1000.971008300781 442.0199890136719 C 1000.552978515625 441.9779968261719 1000.093994140625 441.9779968261719 999.676025390625 441.9779968261719 M 999.4274291992188 441.7294311523438 L 999.676025390625 441.7294311523438 C 1000.092895507812 441.7294311523438 1000.5654296875 441.7294311523438 1000.995849609375 441.7726440429688 C 1001.453491210938 441.8145446777344 1001.872680664062 441.8563232421875 1002.342590332031 441.940673828125 C 1002.642272949219 441.9716186523438 1002.954772949219 442.0415344238281 1003.257141113281 442.1091613769531 C 1003.394409179688 442.139892578125 1003.524108886719 442.1689147949219 1003.651428222656 442.1941528320312 L 1003.662963867188 442.1964721679688 L 1003.674255371094 442.1998291015625 C 1004.064514160156 442.3165588378906 1004.506896972656 442.4488525390625 1004.9482421875 442.6251525878906 C 1005.363586425781 442.7911376953125 1005.7919921875 442.9623107910156 1006.178955078125 443.17626953125 C 1006.667114257812 443.3937377929688 1007.045166015625 443.604248046875 1007.333740234375 443.8193664550781 C 1007.611145019531 443.9858703613281 1007.853820800781 444.153564453125 1008.088623046875 444.3158264160156 C 1008.20947265625 444.3993225097656 1008.33447265625 444.4856872558594 1008.461364746094 444.5698547363281 L 1008.467468261719 444.5738830566406 L 1008.473327636719 444.5782775878906 C 1008.815734863281 444.8356018066406 1009.159790039062 445.1367492675781 1009.495971679688 445.4734191894531 C 1009.838928222656 445.7737426757812 1010.136535644531 446.0712890625 1010.43212890625 446.4093933105469 C 1010.583374023438 446.5822448730469 1010.723327636719 446.765380859375 1010.858642578125 446.9425048828125 C 1010.996276855469 447.12255859375 1011.126220703125 447.2926330566406 1011.267883300781 447.4541015625 L 1011.27880859375 447.4665832519531 L 1011.287963867188 447.4803771972656 L 1011.304626464844 447.5054321289062 C 1011.547729492188 447.8709716796875 1011.799072265625 448.2489318847656 1012.00830078125 448.6252136230469 C 1012.216125488281 448.9991760253906 1012.430786132812 449.3853759765625 1012.602905273438 449.8140563964844 C 1012.815734863281 450.2408447265625 1012.988037109375 450.6726989746094 1013.115173339844 451.0977783203125 C 1013.189086914062 451.344970703125 1013.263366699219 451.5921630859375 1013.337524414062 451.839111328125 L 1013.491088867188 452.3506164550781 L 1013.495056152344 452.3638000488281 L 1013.497497558594 452.3773498535156 L 1013.53369140625 452.5738830566406 C 1013.604370117188 452.9564819335938 1013.671203613281 453.3180236816406 1013.708312988281 453.6825256347656 C 1013.791564941406 454.1468811035156 1013.835571289062 454.6209411621094 1013.835571289062 455.0539855957031 C 1013.835571289062 455.5075378417969 1013.835571289062 455.9361877441406 1013.793518066406 456.3615417480469 C 1013.792541503906 456.6744995117188 1013.75537109375 456.9696960449219 1013.719360351562 457.2553100585938 C 1013.700744628906 457.4027404785156 1013.681579589844 457.5552368164062 1013.667541503906 457.7086486816406 L 1013.66650390625 457.7194519042969 L 1013.664611816406 457.7301330566406 C 1013.575744628906 458.2224426269531 1013.491027832031 458.6356811523438 1013.366088867188 459.0523681640625 L 1013.357421875 459.0811157226562 C 1013.23583984375 459.4845886230469 1013.110168457031 459.9017333984375 1012.944885253906 460.3160705566406 C 1012.841796875 460.6572570800781 1012.691833496094 460.9853515625 1012.546752929688 461.3027648925781 C 1012.5087890625 461.3857727050781 1012.471496582031 461.46728515625 1012.436157226562 461.5469055175781 L 1012.431640625 461.5570678710938 L 1012.42626953125 461.5667724609375 C 1012.372436523438 461.6635437011719 1012.318664550781 461.7631225585938 1012.26416015625 461.8640441894531 C 1012.105895996094 462.1571044921875 1011.942199707031 462.4600219726562 1011.752319335938 462.74560546875 C 1011.528198242188 463.1470031738281 1011.261047363281 463.4993286132812 1010.984130859375 463.8547668457031 C 1010.742126464844 464.1781311035156 1010.455261230469 464.5072021484375 1010.177734375 464.825439453125 L 1010.140380859375 464.8683166503906 C 1009.839904785156 465.2108459472656 1009.498779296875 465.5101013183594 1009.168884277344 465.7995300292969 L 1009.155944824219 465.8108520507812 L 1009.143371582031 465.8218383789062 C 1008.812561035156 466.1110229492188 1008.470520019531 466.4100952148438 1008.084411621094 466.6661682128906 C 1007.700073242188 466.9226989746094 1007.326904296875 467.1706848144531 1006.993347167969 467.3804321289062 L 1006.990966796875 467.3819274902344 L 1006.988586425781 467.3833618164062 L 1006.779541015625 467.5083618164062 L 1006.771484375 467.5131530761719 L 1006.763122558594 467.517333984375 L 1006.262145996094 467.767822265625 L 1005.761169433594 468.018310546875 L 1005.751892089844 468.02294921875 L 1005.742248535156 468.0268249511719 C 1005.330627441406 468.1912841796875 1004.905029296875 468.361328125 1004.523742675781 468.4894104003906 C 1004.206787109375 468.61572265625 1003.897338867188 468.694091796875 1003.56982421875 468.7770385742188 C 1003.451782226562 468.8069152832031 1003.33154296875 468.8373718261719 1003.208190917969 468.8708801269531 L 1003.2001953125 468.8730773925781 L 1003.192077636719 468.8746948242188 C 1002.817321777344 468.9501647949219 1002.376953125 469.0380859375 1001.892700195312 469.1265258789062 L 1001.870544433594 469.1305541992188 L 1001.848022460938 469.1305541992188 L 1001.765014648438 469.1305541992188 L 1001.73681640625 469.1305541992188 C 1001.369567871094 469.1715087890625 1000.943115234375 469.2145690917969 1000.510986328125 469.2145690917969 L 999.2160034179688 469.2145690917969 L 999.2035522460938 469.2145690917969 L 999.1911010742188 469.2133178710938 L 999.0751342773438 469.2017211914062 C 998.6939697265625 469.1636962890625 998.2619018554688 469.12060546875 997.8343505859375 469.0425415039062 L 997.664306640625 469.0089721679688 C 997.2872314453125 468.934814453125 996.8975219726562 468.858154296875 996.5274047851562 468.7485046386719 C 996.2765502929688 468.7048645019531 996.02099609375 468.6242980957031 995.7026977539062 468.4885864257812 C 995.6552734375 468.4727783203125 995.6063842773438 468.4570007324219 995.556640625 468.4409484863281 C 995.3502807617188 468.3742980957031 995.1172485351562 468.299072265625 994.9065551757812 468.1956481933594 C 994.6077880859375 468.1083679199219 994.3544311523438 467.9821472167969 994.1091918945312 467.8599853515625 L 994.0921630859375 467.8515014648438 C 993.8103637695312 467.7111511230469 993.57421875 467.5902709960938 993.3261108398438 467.4264526367188 C 993.0767211914062 467.3009643554688 992.8616943359375 467.1716918945312 992.6867065429688 467.0419311523438 C 992.63037109375 467.0083923339844 992.5772094726562 466.9778747558594 992.5261840820312 466.9485778808594 C 992.3908081054688 466.8708190917969 992.2628784179688 466.79736328125 992.1326293945312 466.7004089355469 L 992.117431640625 466.6891479492188 L 992.1041870117188 466.6757202148438 L 992.0345458984375 466.605224609375 C 991.99267578125 466.5743408203125 991.9483032226562 466.5433959960938 991.9027709960938 466.5116271972656 C 991.7734375 466.4213562011719 991.6276245117188 466.3196105957031 991.4976806640625 466.1930236816406 C 991.405029296875 466.1318359375 991.296630859375 466.0586547851562 991.185302734375 465.9600219726562 L 984.7731323242188 466.247314453125 L 984.767578125 466.24755859375 L 984.7620239257812 466.24755859375 L 984.267822265625 466.24755859375 L 983.6075439453125 466.2890625 L 983.5997924804688 466.28955078125 L 983.5919799804688 466.28955078125 L 983.138671875 466.28955078125 L 982.224365234375 466.3313293457031 L 981.7698974609375 466.3520812988281 L 981.9979248046875 465.9584045410156 L 982.4541625976562 465.1708374023438 L 982.6597900390625 464.7606201171875 L 982.6632690429688 464.7536926269531 L 982.6671142578125 464.7470397949219 L 982.9591674804688 464.2450256347656 L 982.9754028320312 464.2170715332031 L 982.9982299804688 464.1942138671875 L 983.0150146484375 464.1774597167969 L 983.2489013671875 463.7497253417969 L 983.2503051757812 463.7471008300781 L 983.2518310546875 463.7445068359375 L 986.5855102539062 457.9825134277344 C 986.5511474609375 457.8418273925781 986.521240234375 457.7014465332031 986.5186157226562 457.5780944824219 L 986.4794921875 457.2669677734375 L 986.4392700195312 457.0669860839844 L 986.4343872070312 457.042724609375 L 986.4343872070312 457.0180053710938 L 986.4343872070312 456.9126892089844 C 986.4156494140625 456.7919616699219 986.4056396484375 456.6755065917969 986.3959350585938 456.5626831054688 C 986.385498046875 456.4417114257812 986.3756713867188 456.3274536132812 986.3562622070312 456.2310485839844 L 986.32958984375 456.0984497070312 L 986.3762817382812 456.052978515625 C 986.3513793945312 455.8548583984375 986.3513793945312 455.6395568847656 986.3513793945312 455.4299926757812 C 986.3513793945312 455.1392211914062 986.3513793945312 454.8387451171875 986.3934936523438 454.5350952148438 C 986.3954467773438 454.264404296875 986.439697265625 453.9552307128906 986.4789428710938 453.6817626953125 L 986.552490234375 453.1697692871094 L 986.60498046875 452.8046264648438 L 986.6073608398438 452.7880859375 L 986.6119384765625 452.7720336914062 C 986.647216796875 452.6479187011719 986.6754760742188 452.5198669433594 986.7028198242188 452.3960571289062 C 986.7388305664062 452.23291015625 986.7728881835938 452.0787658691406 986.822021484375 451.9299621582031 L 986.8295288085938 451.9049987792969 C 986.9517822265625 451.4992980957031 987.0781860351562 451.079833984375 987.2447509765625 450.6623229980469 C 987.41455078125 450.1959838867188 987.5855102539062 449.8112182617188 987.7508544921875 449.4390869140625 L 987.753173828125 449.4338989257812 L 987.7556762695312 449.4288330078125 C 987.9898681640625 448.9604797363281 988.1995239257812 448.5934448242188 988.4346313476562 448.2403869628906 C 988.6676025390625 447.8225708007812 988.9254760742188 447.4499816894531 989.2012329101562 447.1325378417969 C 989.4326782226562 446.7880859375 989.720947265625 446.4425659179688 990.0582275390625 446.105224609375 L 990.0770263671875 446.0864868164062 C 990.4098510742188 445.7545776367188 990.6973266601562 445.4679565429688 991.0310668945312 445.1751403808594 C 991.3650512695312 444.8831481933594 991.7086181640625 444.5827941894531 992.0945434570312 444.3252258300781 C 992.4744873046875 444.0302734375 992.8538818359375 443.8183898925781 993.2208251953125 443.6134643554688 L 993.238525390625 443.6036071777344 C 993.546875 443.3995056152344 993.8504638671875 443.2506713867188 994.1716918945312 443.0932006835938 C 994.2548217773438 443.0524597167969 994.3392944335938 443.0110168457031 994.4255981445312 442.9677734375 L 994.4307861328125 442.9651794433594 L 994.4360961914062 442.9628295898438 C 994.8817749023438 442.764892578125 995.2958374023438 442.6075744628906 995.6669311523438 442.4951477050781 C 996.1145629882812 442.3169555664062 996.5343627929688 442.1952819824219 996.9859619140625 442.1129150390625 C 997.39111328125 441.9918823242188 997.8623657226562 441.9009704589844 998.314697265625 441.8566284179688 C 998.653076171875 441.8226318359375 999.0374755859375 441.7867431640625 999.4274291992188 441.7752075195312 L 999.4274291992188 441.7294311523438 Z"/>
    </g>
    <path id="Path_14" data-name="Path 14" class="cls-1" d="M995.643,448.512c-1.918,1.008-2.4,2.861-1.865,4.855a13.454,13.454,0,0,0,1.751,3.783,17.63,17.63,0,0,0,3.156,3.743c3.108,2.711,7.7,1.819,5.948-.631a19.016,19.016,0,0,1-1.394-2.108.672.672,0,0,0-1.017-.214c-.663.5-1.286,1.03-1.623.983-.521-.031-4.989-4.89-3.51-5.825.672-.388,1.854-.891,1.27-1.695-.419-.6-1.925-2.733-1.925-2.733A.565.565,0,0,0,995.643,448.512Z"/>
  </g>
</svg>
